<svg width="64" height="64" viewBox="0 0 64 64" fill="none" xmlns="http://www.w3.org/2000/svg">
  <path fill-rule="evenodd" clip-rule="evenodd" d="M6 32C6 17.6454 17.6454 6 32 6C46.3546 6 58 17.6454 58 32C58 46.3546 46.3546 58 32 58C17.6454 58 6 46.3546 6 32ZM32 10C19.8546 10 10 19.8546 10 32C10 44.1454 19.8546 54 32 54C44.1454 54 54 44.1454 54 32C54 19.8546 44.1454 10 32 10Z" fill="#42D3FF" />
  <path fill-rule="evenodd" clip-rule="evenodd" d="M26 22C27.1046 22 28 22.8954 28 24V40C28 41.1046 27.1046 42 26 42C24.8954 42 24 41.1046 24 40V24C24 22.8954 24.8954 22 26 22Z" fill="#42D3FF" />
  <path fill-rule="evenodd" clip-rule="evenodd" d="M38 22C39.1046 22 40 22.8954 40 24V40C40 41.1046 39.1046 42 38 42C36.8954 42 36 41.1046 36 40V24C36 22.8954 36.8954 22 38 22Z" fill="#42D3FF" />
</svg>
  