<svg width="64" height="64" viewBox="0 0 64 64" fill="none" xmlns="http://www.w3.org/2000/svg">
  <path fill-rule="evenodd" clip-rule="evenodd" d="M32 7C33.1046 7 34 7.89543 34 9V10.0834C39.6327 10.5542 44.9435 13.0024 48.9706 17.0294C53.4715 21.5303 56 27.6348 56 34C56 38.7468 54.5924 43.3869 51.9553 47.3337C49.3181 51.2805 45.5698 54.3566 41.1844 56.1731C36.799 57.9896 31.9734 58.4649 27.3179 57.5389C22.6623 56.6128 18.3859 54.327 15.0295 50.9706C11.673 47.6141 9.38722 43.3377 8.46117 38.6822C7.53513 34.0266 8.01041 29.201 9.82691 24.8156C10.9634 22.0719 12.5929 19.5776 14.6203 17.4487L13.5858 16.4142C12.8048 15.6332 12.8048 14.3668 13.5858 13.5858C14.3669 12.8047 15.6332 12.8047 16.4142 13.5858L17.6163 14.7878C17.959 14.5313 18.3091 14.2834 18.6663 14.0447C22.0566 11.7794 25.9584 10.4214 30 10.0835V9C30 7.89543 30.8954 7 32 7ZM32 14C28.0444 14 24.1776 15.173 20.8886 17.3706C17.5996 19.5682 15.0362 22.6918 13.5224 26.3463C12.0087 30.0009 11.6126 34.0222 12.3843 37.9018C13.156 41.7814 15.0608 45.3451 17.8579 48.1421C20.6549 50.9392 24.2186 52.844 28.0982 53.6157C31.9778 54.3874 35.9992 53.9913 39.6537 52.4776C43.3082 50.9638 46.4318 48.4004 48.6294 45.1114C50.827 41.8224 52 37.9556 52 34C52 28.6957 49.8929 23.6086 46.1422 19.8579C42.3914 16.1071 37.3043 14 32 14ZM32 17C33.1046 17 34 17.8954 34 19V28.3414C36.3304 29.1651 38 31.3876 38 34C38 37.3137 35.3137 40 32 40C28.6863 40 26 37.3137 26 34C26 31.3876 27.6696 29.1651 30 28.3414V19C30 17.8954 30.8954 17 32 17ZM32 32C30.8954 32 30 32.8954 30 34C30 35.1046 30.8954 36 32 36C33.1046 36 34 35.1046 34 34C34 32.8954 33.1046 32 32 32Z" fill="white" />
</svg>
  