<svg width="64" height="64" viewBox="0 0 64 64" fill="none" xmlns="http://www.w3.org/2000/svg">
  <path fill-rule="evenodd" clip-rule="evenodd" d="M32.7502 12.0104C33.3025 11.9643 33.8569 12.072 34.3517 12.3218C34.8466 12.5715 35.2625 12.9535 35.5535 13.4253C35.8444 13.8971 35.999 14.4402 36 14.9945L36 14.9982V48.9982L36 49.0018C35.999 49.5561 35.8444 50.0993 35.5535 50.5711C35.2625 51.0429 34.8465 51.4248 34.3517 51.6746C33.8569 51.9243 33.3025 52.0321 32.7502 51.9859C32.1978 51.9398 31.669 51.7415 31.2225 51.4131C31.1946 51.3926 31.1673 51.3713 31.1405 51.3494L19.7189 41.9981C19.7172 41.9981 19.7154 41.9982 19.7137 41.9982C19.7112 41.9982 19.7087 41.9982 19.7063 41.9982H11C10.2044 41.9982 9.44129 41.6821 8.87868 41.1195C8.31607 40.5569 8 39.7938 8 38.9982V24.9982C8 24.2025 8.31607 23.4395 8.87868 22.8769C9.44129 22.3142 10.2044 21.9982 11 21.9982H19.719L31.1405 12.6469C31.1673 12.625 31.1946 12.6038 31.2225 12.5833C31.669 12.2549 32.1978 12.0566 32.7502 12.0104ZM32 17.1129L22.2504 25.0952C21.548 25.6829 20.66 26.0029 19.744 25.9982H12V37.9982H19.6996C20.6203 37.993 21.5147 38.3063 22.2309 38.8852C22.2342 38.8878 22.2375 38.8905 22.2407 38.8932L32 46.8835V17.1129Z" fill="#42D3FF" />
  <path fill-rule="evenodd" clip-rule="evenodd" d="M43.0911 22.2185C44.075 21.7165 45.2795 22.1071 45.7815 23.0911C47.1523 25.7777 48 28.6985 48 32C48 35.2688 47.1159 38.2499 45.7876 40.897C45.2922 41.8842 44.0902 42.283 43.103 41.7876C42.1158 41.2922 41.717 40.0902 42.2124 39.103C43.3191 36.8976 44 34.5287 44 32C44 29.424 43.3477 27.1223 42.2185 24.9089C41.7165 23.925 42.1072 22.7205 43.0911 22.2185Z" fill="#42D3FF" />
  <path fill-rule="evenodd" clip-rule="evenodd" d="M48.9926 16.2723C49.9468 15.7159 51.1714 16.0384 51.7277 16.9926C54.3509 21.4912 56 25.5505 56 32C56 38.4594 54.279 42.5547 51.7354 46.9943C51.1862 47.9527 49.9642 48.2845 49.0057 47.7354C48.0473 47.1862 47.7155 45.9641 48.2646 45.0057C50.591 40.9453 52 37.5406 52 32C52 26.4495 50.6491 23.0838 48.2723 19.0074C47.7159 18.0532 48.0384 16.8286 48.9926 16.2723Z" fill="#42D3FF" />
</svg>
  