<svg width="64" height="64" viewBox="0 0 64 64" fill="none" xmlns="http://www.w3.org/2000/svg">
  <path fill-rule="evenodd" clip-rule="evenodd" d="M6 32C6 17.6454 17.6454 6 32 6C46.3546 6 58 17.6454 58 32C58 46.3546 46.3546 58 32 58C17.6454 58 6 46.3546 6 32ZM32 10C19.8546 10 10 19.8546 10 32C10 44.1454 19.8546 54 32 54C44.1454 54 54 44.1454 54 32C54 19.8546 44.1454 10 32 10Z" fill="white" />
  <path d="M38.8 42H25.2C24.3515 41.9993 23.538 41.662 22.938 41.062C22.338 40.462 22.0007 39.6485 22 38.8V25.2C22.0007 24.3515 22.338 23.538 22.938 22.938C23.538 22.338 24.3515 22.0007 25.2 22H38.8C39.6485 22.0007 40.462 22.338 41.062 22.938C41.662 23.538 41.9993 24.3515 42 25.2V38.8C41.9993 39.6485 41.662 40.462 41.062 41.062C40.462 41.662 39.6485 41.9993 38.8 42Z" fill="white" />
</svg>
  